<?xml version="1.0" encoding="utf-8"?>
<!-- Generator: Adobe Illustrator 18.1.1, SVG Export Plug-In . SVG Version: 6.00 Build 0)  -->
<!DOCTYPE svg PUBLIC "-//W3C//DTD SVG 1.1//EN" "http://www.w3.org/Graphics/SVG/1.1/DTD/svg11.dtd">
<svg version="1.1" id="Layer_1" xmlns="http://www.w3.org/2000/svg" xmlns:xlink="http://www.w3.org/1999/xlink" x="0px" y="0px"
	 width="204px" height="203px" viewBox="0 0 204 203" style="enable-background:new 0 0 204 203;" xml:space="preserve">
<style type="text/css">
	.st0{fill:#FFFFFF;}
</style>
<polyline class="st0" points="204.2,203.9 0.8,203.9 0.8,0.5 204.2,0.5 "/>
<path class="st0" d="M99.3,32.4c1.3,0.8,2.7,1.9,4.3,3.5c1.5,1.6,3,3.5,4.5,5.8c1.4,2.2,2.6,4.7,3.7,7.7c0.9,3,1.3,6.4,1.3,10.4
	c-0.1,7.2-1.7,13-4.8,17.4c-1.5,2.1-3.1,4.1-4.8,5.8c-1.9,1.8-3.9,3.6-6,5.4c-1.2,1.3-2.3,2.7-3.3,4.3c-1.2,1.6-1.8,3.6-1.8,5.7
	c0,2.1,0.6,3.9,1.9,5.2c1,1.3,2.1,2.5,3.1,3.5l6.9,5.6c4.3,3.5,8,7.3,11.2,11.6c3,4.3,4.6,9.9,4.7,16.8c0,9.8-4.3,18.5-13,26.1
	c-9,7.8-22,11.9-38.9,12.2c-14.2-0.1-24.8-3.2-31.8-9.1c-7.1-5.5-10.6-12.1-10.6-19.8c0-3.7,1.1-7.9,3.5-12.5
	c2.2-4.6,6.3-8.6,12.1-12.1c6.6-3.7,13.4-6.2,20.7-7.5c7.2-1,13.1-1.6,17.8-1.8c-1.5-1.9-2.8-4-3.9-6.2c-1.3-2.1-2-4.7-2-7.6
	c0-1.8,0.3-3.3,0.8-4.5c0.4-1.3,0.9-2.4,1.2-3.5c-2.3,0.3-4.5,0.4-6.5,0.4c-10.8-0.1-19-3.5-24.7-10.2C38.9,78.7,36,71.5,36,63.3
	c0-10,4.2-19,12.6-27.1c5.8-4.7,11.7-7.8,17.9-9.3c6.1-1.3,11.9-1.9,17.3-1.9h40.5l-12.5,7.3H99.3z M107.1,149c0-5.1-1.7-9.6-5-13.4
	c-3.6-3.6-9.1-8.1-16.6-13.3c-1.3-0.1-2.8-0.2-4.5-0.2c-1-0.1-3.7,0-7.9,0.4c-4.2,0.6-8.5,1.5-12.9,2.9c-1,0.4-2.5,1-4.3,1.8
	c-1.9,0.9-3.8,2.1-5.7,3.7c-1.9,1.6-3.5,3.7-4.7,6.1c-1.5,2.6-2.2,5.7-2.2,9.3c0,7.1,3.2,13,9.7,17.6c6.1,4.6,14.5,7,25.2,7.1
	c9.5-0.1,16.8-2.2,21.9-6.3C104.6,160.5,107.1,155.3,107.1,149z M78.9,89.6c5.3-0.2,9.8-2.1,13.3-5.7c1.7-2.6,2.8-5.2,3.3-7.9
	c0.3-2.7,0.4-5,0.4-6.8c0-8-2-16-6.1-24.2c-1.9-3.9-4.4-7.1-7.6-9.5c-3.2-2.3-6.9-3.5-11-3.7c-5.5,0.1-10.1,2.3-13.7,6.6
	c-3.1,4.5-4.5,9.5-4.4,15.1c0,7.3,2.1,14.9,6.4,22.9c2.1,3.7,4.7,6.8,8,9.4C70.9,88.3,74.6,89.6,78.9,89.6z"/>
<polygon class="st0" points="179.1,47.2 157.9,47.2 157.9,25.9 147.6,25.9 147.6,47.2 126.3,47.2 126.3,57.5 147.6,57.5 147.6,78.7 
	157.9,78.7 157.9,57.5 179.1,57.5 "/>
<g>
</g>
<g>
</g>
<g>
</g>
<g>
</g>
<g>
</g>
<g>
</g>
</svg>
